<svg xmlns="http://www.w3.org/2000/svg" width="24" height="24" viewBox="0 0 24 24"><path fill="currentColor" d="M12 2C6.477 2 2 6.477 2 12s4.477 10 10 10s10-4.477 10-10S17.523 2 12 2m0 1.5c.98 0 2.09.986 2.952 2.875c.35.777.636 1.663.848 2.625H8.2c.212-.962.498-1.848.848-2.625C9.91 4.486 11.02 3.5 12 3.5M8.027 7a14 14 0 0 0-.384 2H4.05a8.53 8.53 0 0 1 3.977-2M15.973 7a8.53 8.53 0 0 1 3.977 2h-3.593a14 14 0 0 0-.384-2M3.673 10.5h3.81c-.06.485-.093.985-.093 1.5s.033 1.015.092 1.5H3.673a8.5 8.5 0 0 1 0-3m4.36 0h7.934c.063.484.1.984.1 1.5s-.037 1.016-.1 1.5H8.033A12.6 12.6 0 0 1 7.933 12c0-.516.037-1.016.1-1.5m8.484 0h3.81a8.5 8.5 0 0 1 0 3h-3.81c.06-.485.093-.985.093-1.5s-.033-1.015-.093-1.5M4.05 15h3.593c.1.722.23 1.404.384 2A8.53 8.53 0 0 1 4.05 15m4.15 0h7.6c-.212.962-.498 1.848-.848 2.625C10.09 19.514 11 20.5 12 20.5s1.91-.986 2.952-2.875c.35-.777.636-1.663.848-2.625H8.2m9.207 0h3.593a8.53 8.53 0 0 1-3.977 2c.154-.596.284-1.278.384-2"/></svg>
