<svg xmlns="http://www.w3.org/2000/svg" width="32" height="32" viewBox="0 0 32 32"><g fill="currentColor"><path d="M16 11.26a4.74 4.74 0 1 0 4.74 4.74A4.746 4.746 0 0 0 16 11.26m0 7.814a3.074 3.074 0 1 1 3.074-3.074A3.077 3.077 0 0 1 16 19.074"/><circle cx="20.923" cy="11.076" r="1.108"/><path d="M20.307 7.385h-8.614A4.308 4.308 0 0 0 7.385 11.693v8.614a4.308 4.308 0 0 0 4.308 4.308h8.614a4.308 4.308 0 0 0 4.308-4.308v-8.614a4.308 4.308 0 0 0-4.308-4.308m2.693 12.922a2.693 2.693 0 0 1-2.693 2.693h-8.614a2.693 2.693 0 0 1-2.693-2.693v-8.614a2.693 2.693 0 0 1 2.693-2.693h8.614a2.693 2.693 0 0 1 2.693 2.693z"/><path d="M16-.034C7.158-.034-.034 7.158-.034 16S7.158 32.034 16 32.034S32.034 24.842 32.034 16S24.842-.034 16-.034m0 31C7.748 30.966 1.034 24.252 1.034 16S7.748 1.034 16 1.034S30.966 7.748 30.966 16S24.252 30.966 16 30.966"/></g></svg>
